HIERARCHY
ROOT Hips
{
	OFFSET	0.00	0.00	0.00
	CHANNELS 6 Xposition Yposition Zposition Zrotation Xrotation Yrotation
	JOINT LeftUpLeg
	{
		OFFSET	 0.126116	-0.065224	 0.014019
		CHANNELS 3 Zrotation Xrotation Yrotation
		JOINT LeftLeg
		{
			OFFSET	 0.000000	 0.569914	 0.000000
			CHANNELS 3 Zrotation Xrotation Yrotation
			JOINT LeftFoot
			{
				OFFSET	 0.000000	 0.544423	 0.000000
				CHANNELS 3 Zrotation Xrotation Yrotation
				JOINT LeftToeBase
				{
					OFFSET	 0.000000	 0.207117	 0.000000
					CHANNELS 3 Zrotation Xrotation Yrotation
					End Site
					{
						OFFSET	 0.000000	 0.207117	 0.000000
					}
				}
			}
		}
	}
	JOINT RightUpLeg
	{
		OFFSET	-0.124023	-0.065224	 0.008373
		CHANNELS 3 Zrotation Xrotation Yrotation
		JOINT RightLeg
		{
			OFFSET	 0.000000	 0.570047	 0.000000
			CHANNELS 3 Zrotation Xrotation Yrotation
			JOINT RightFoot
			{
				OFFSET	 0.000000	 0.544354	 0.000000
				CHANNELS 3 Zrotation Xrotation Yrotation
				JOINT RightToeBase
				{
					OFFSET	 0.000000	 0.207540	 0.000000
					CHANNELS 3 Zrotation Xrotation Yrotation
					End Site
					{
						OFFSET	 0.000000	 0.207540	 0.000000
					}
				}
			}
		}
	}
	JOINT Spine
	{
		OFFSET	 0.000184	 0.117403	 0.007763
		CHANNELS 3 Zrotation Xrotation Yrotation
		JOINT Spine1
		{
			OFFSET	 0.000000	 0.137269	 0.000000
			CHANNELS 3 Zrotation Xrotation Yrotation
			JOINT Spine2
			{
				OFFSET	 0.000000	 0.156879	 0.000000
				CHANNELS 3 Zrotation Xrotation Yrotation
				JOINT LeftShoulder
				{
					OFFSET	 0.080501	 0.160143	 0.002496
					CHANNELS 3 Zrotation Xrotation Yrotation
					JOINT LeftArm
					{
						OFFSET	 0.000000	 0.164363	 0.000000
						CHANNELS 3 Zrotation Xrotation Yrotation
						JOINT LeftForeArm
						{
							OFFSET	 0.000000	 0.364576	 0.000000
							CHANNELS 3 Zrotation Xrotation Yrotation
							JOINT LeftHand
							{
								OFFSET	 0.000000	 0.360812	 0.000000
								CHANNELS 3 Zrotation Xrotation Yrotation
								JOINT LeftHandIndex1
								{
									OFFSET	 0.000000	 0.086006	 0.000000
									CHANNELS 3 Zrotation Xrotation Yrotation
									JOINT LeftHandIndex2
									{
										OFFSET	 0.000000	 0.047237	 0.000000
										CHANNELS 3 Zrotation Xrotation Yrotation
										JOINT LeftHandIndex3
										{
											OFFSET	-0.004284	 0.038165	 0.000551
											CHANNELS 3 Zrotation Xrotation Yrotation
											End Site
											{
												OFFSET	-0.004284	 0.038165	 0.000551
											}
										}
									}
								}
							}
						}
					}
				}
				JOINT Neck
				{
					OFFSET	 0.000000	 0.176489	 0.000000
					CHANNELS 3 Zrotation Xrotation Yrotation
					JOINT Head
					{
						OFFSET	 0.000000	 0.077941	 0.001747
						CHANNELS 3 Zrotation Xrotation Yrotation
						End Site
						{
							OFFSET	 0.000000	 0.077941	 0.001747
						}
					}
				}
				JOINT RightShoulder
				{
					OFFSET	-0.080363	 0.159706	-0.000306
					CHANNELS 3 Zrotation Xrotation Yrotation
					JOINT RightArm
					{
						OFFSET	 0.000000	 0.164196	 0.000000
						CHANNELS 3 Zrotation Xrotation Yrotation
						JOINT RightForeArm
						{
							OFFSET	 0.000000	 0.365611	 0.000000
							CHANNELS 3 Zrotation Xrotation Yrotation
							JOINT RightHand
							{
								OFFSET	 0.000000	 0.360648	 0.000000
								CHANNELS 3 Zrotation Xrotation Yrotation
								JOINT RightHandIndex1
								{
									OFFSET	 0.000000	 0.069977	 0.000000
									CHANNELS 3 Zrotation Xrotation Yrotation
									JOINT RightHandIndex2
									{
										OFFSET	 0.000000	 0.052305	 0.000000
										CHANNELS 3 Zrotation Xrotation Yrotation
										JOINT RightHandIndex3
										{
											OFFSET	 0.009002	 0.042196	 0.000782
											CHANNELS 3 Zrotation Xrotation Yrotation
											End Site
											{
												OFFSET	 0.009002	 0.042196	 0.000782
											}
										}
									}
								}
							}
						}
					}
				}
			}
		}
	}
}
MOTION
Frames:    12
Frame Time: 0.03333334
-0.001319	 1.269644	-0.008724	 0.110374	 3.204285	 178.792700	 175.466400	 2.778222	 15.089360	 3.253885	-16.040230	 2.919396	-2.230916	 70.447520	 5.936905	 1.331492	 28.938720	-2.729976	-175.542300	 3.058009	-11.616980	-4.967685	-15.943540	-6.426148	-0.500754	 69.882270	-0.812836	-1.305362	 28.580660	 2.604153	-0.763237	 2.986935	-10.967820	-2.058074	 4.390207	-6.329915	-1.571687	-4.472137	 14.450550	-113.447100	 5.125323	 92.999910	 6.536401	 54.310540	 38.270870	 15.739350	-0.804183	 0.027304	-40.256850	-25.469330	-60.700180	-6.580301	 5.266122	 0.000000	 0.000000	 0.000000	 0.000000	 0.000000	 0.000000	 0.000000	 3.832056	-0.648982	-0.250789	 3.249542	 0.573955	 5.279045	 114.205300	-4.426061	-88.484180	-52.119580	 12.324140	 44.013320	-95.722240	-2.241837	-2.419159	-26.603950	-40.802130	 6.635162	-0.359781	 10.582430	 0.744568	 11.977790	 9.317299	-2.096063	-8.359142	 3.150330	 0.104225
-0.001277	 1.270029	-0.008828	 0.144610	 3.202959	 178.761100	 175.497400	 2.795071	 15.053790	 3.263609	-16.085690	 2.908266	-2.260632	 70.417270	 5.969770	 1.331492	 28.938720	-2.729976	-175.517800	 3.029615	-11.632300	-4.947242	-15.881440	-6.443076	-0.557730	 69.784820	-0.754311	-1.305371	 28.580710	 2.601788	-0.735333	 2.729355	-10.801390	-2.083518	 5.183181	-6.276803	-1.479158	-5.555252	 14.254650	-113.447200	 5.120312	 92.998800	 5.224002	 54.181850	 39.427400	 16.382170	-0.836145	 0.036522	-40.652740	-26.810370	-61.098320	-6.580301	 5.266122	 0.000000	 0.000000	 0.000000	 0.000000	 0.000000	 0.000000	 0.000000	 3.840218	-0.667710	-0.253331	 3.287295	 0.461865	 5.218999	 114.203900	-4.416105	-88.491390	-51.569140	 12.710780	 42.884960	-96.548610	-2.238357	-2.451415	-29.719350	-42.102480	 4.220330	-0.359779	 10.582380	 0.744568	 11.977790	 9.317248	-2.096053	-8.359141	 3.150304	 0.104227
-0.001178	 1.270426	-0.008974	 0.181510	 3.202470	 178.718900	 175.533000	 2.808079	 15.022990	 3.273120	-16.129990	 2.892694	-2.260279	 70.389790	 5.967486	 1.331492	 28.938720	-2.729976	-175.491500	 2.995623	-11.637210	-4.923236	-15.808390	-6.466624	-0.593771	 69.681080	-0.722110	-1.305383	 28.580780	 2.598643	-0.712347	 2.469054	-10.549160	-2.105530	 5.984445	-6.180012	-1.390388	-6.651511	 13.938510	-113.447300	 5.113657	 92.997340	 3.927635	 54.062000	 40.582360	 17.018740	-0.867681	 0.045997	-41.060810	-28.365560	-61.321660	-6.580301	 5.266122	 0.000000	 0.000000	 0.000000	 0.000000	 0.000000	 0.000000	 0.000000	 3.851067	-0.692604	-0.256705	 3.334281	 0.358376	 5.121618	 114.202000	-4.402908	-88.500930	-50.893440	 13.091970	 41.265740	-97.857730	-2.231945	-2.502412	-33.664340	-43.513130	 0.617348	-0.359777	 10.582310	 0.744568	 11.977790	 9.317183	-2.096039	-8.359140	 3.150269	 0.104230
-0.001007	 1.270832	-0.009171	 0.219746	 3.202951	 178.668000	 175.577000	 2.818316	 14.966610	 3.281962	-16.171330	 2.872431	-2.316136	 70.364340	 6.025996	 1.331492	 28.938720	-2.729976	-175.459800	 2.953337	-11.662340	-4.895795	-15.724850	-6.496765	-0.692410	 69.571140	-0.623285	-1.305399	 28.580870	 2.594728	-0.696258	 2.208664	-10.208510	-2.125931	 6.784867	-6.037681	-1.307239	-7.749539	 13.493460	-113.447400	 5.105361	 92.995530	 2.664436	 53.960460	 41.722210	 17.640860	-0.898439	 0.055572	-41.466220	-30.137030	-61.353020	-6.580301	 5.266122	 0.000000	 0.000000	 0.000000	 0.000000	 0.000000	 0.000000	 0.000000	 3.864571	-0.723594	-0.260899	 3.390197	 0.264638	 4.984998	 114.199600	-4.386431	-88.512860	-50.134350	 13.454810	 39.062630	-99.758130	-2.220477	-2.576337	-38.489870	-44.845690	-4.460362	-0.359774	 10.582230	 0.744568	 11.977790	 9.317101	-2.096022	-8.359138	 3.150225	 0.104235
-0.000747	 1.271246	-0.009431	 0.257921	 3.205077	 178.606900	 175.627400	 2.822321	 14.898680	 3.289467	-16.206290	 2.847532	-2.386467	 70.340030	 6.098258	 1.331492	 28.938720	-2.729976	-175.424800	 2.903486	-11.692990	-4.865435	-15.632330	-6.533818	-0.813832	 69.456290	-0.503556	-1.305417	 28.580970	 2.590040	-0.689563	 1.949703	-9.771506	-2.146341	 7.579511	-5.843760	-1.231656	-8.844057	 12.906090	-113.447600	 5.095409	 92.993330	 1.445323	 53.888330	 42.839170	 18.241000	-0.927919	 0.065173	-41.844000	-32.139970	-61.165930	-6.580301	 5.266122	 0.000000	 0.000000	 0.000000	 0.000000	 0.000000	 0.000000	 0.000000	 3.880741	-0.760712	-0.265912	 3.454967	 0.180992	 4.806178	 114.196700	-4.366719	-88.527090	-49.370100	 13.745640	 36.172090	-102.311500	-2.201271	-2.674778	-44.213430	-45.791070	-11.284320	-0.359771	 10.582130	 0.744568	 11.977790	 9.317003	-2.096003	-8.359138	 3.150174	 0.104240
-0.000390	 1.271662	-0.009757	 0.294061	 3.208972	 178.537700	 175.682900	 2.819517	 14.820410	 3.295264	-16.233320	 2.818235	-2.473293	 70.316710	 6.186076	 1.331492	 28.938720	-2.729976	-175.387100	 2.847153	-11.728610	-4.833291	-15.534280	-6.577434	-0.959234	 69.339540	-0.361939	-1.305438	 28.581090	 2.584656	-0.694594	 1.698412	-9.237679	-2.168120	 8.349399	-5.595405	-1.166739	-9.910424	 12.170480	-113.447700	 5.084002	 92.990830	 0.299850	 53.857600	 43.907960	 18.802400	-0.955495	 0.074349	-42.148710	-34.357830	-60.725310	-6.580301	 5.266122	 0.000000	 0.000000	 0.000000	 0.000000	 0.000000	 0.000000	 0.000000	 3.899307	-0.803340	-0.271657	 3.527426	 0.108913	 4.584939	 114.193500	-4.344083	-88.543460	-48.756260	 13.853590	 32.563380	-105.436600	-2.171877	-2.794066	-50.548890	-45.902280	-19.790970	-0.359768	 10.582020	 0.744568	 11.977790	 9.316891	-2.095980	-8.359134	 3.150114	 0.104245
 0.000077	 1.272087	-0.010161	 0.327069	 3.214261	 178.459200	 175.743600	 2.809018	 14.730500	 3.298944	-16.250470	 2.784101	-2.577578	 70.293000	 6.290368	 1.331492	 28.938720	-2.729976	-175.346800	 2.784756	-11.770230	-4.799664	-15.431650	-6.628612	-1.132041	 69.220280	-0.195068	-1.305462	 28.581230	 2.578496	-0.714347	 1.452798	-8.588335	-2.191339	 9.098619	-5.279892	-1.115077	-10.953810	 11.256630	-113.448000	 5.070954	 92.987980	-0.773943	 53.880290	 44.933090	 19.321120	-0.980818	 0.083105	-42.320820	-36.838670	-59.963380	-6.580301	 5.266122	 0.000000	 0.000000	 0.000000	 0.000000	 0.000000	 0.000000	 0.000000	 3.920542	-0.852110	-0.278212	 3.608559	 0.047751	 4.314100	 114.189700	-4.318192	-88.562170	-48.524720	 13.627150	 28.153420	-109.012700	-2.130280	-2.928350	-56.990210	-44.681030	-29.731480	-0.359764	 10.581890	 0.744568	 11.977790	 9.316761	-2.095954	-8.359132	 3.150046	 0.104252
 0.000655	 1.272516	-0.010652	 0.354976	 3.221956	 178.371200	 175.807800	 2.788346	 14.628740	 3.300028	-16.255560	 2.745066	-2.697855	 70.268500	 6.409924	 1.331492	 28.938720	-2.729976	-175.305400	 2.716444	-11.817430	-4.765698	-15.327830	-6.687775	-1.329932	 69.100890	-0.005079	-1.305488	 28.581380	 2.571571	-0.752463	 1.217978	-7.810979	-2.214163	 9.812834	-4.885746	-1.082226	-11.951560	 10.143320	-113.448200	 5.056279	 92.984750	-1.748513	 53.969460	 45.892740	 19.778510	-1.003130	 0.091056	-42.260070	-39.585330	-58.784460	-6.580301	 5.266122	 0.000000	 0.000000	 0.000000	 0.000000	 0.000000	 0.000000	 0.000000	 3.944409	-0.906943	-0.285560	 3.698119	-0.001309	 3.989621	 114.185500	-4.289071	-88.583230	-49.028820	 12.900430	 23.006990	-112.720500	-2.078373	-3.064585	-62.467010	-41.738520	-40.212320	-0.359759	 10.581740	 0.744568	 11.977790	 9.316615	-2.095925	-8.359129	 3.149969	 0.104259
 0.001328	 1.272945	-0.011219	 0.375496	 3.232554	 178.275800	 175.874900	 2.755832	 14.502530	 3.297615	-16.244290	 2.701573	-2.868574	 70.240900	 6.584705	 1.331492	 28.938720	-2.729976	-175.263700	 2.643133	-11.883410	-4.732915	-15.227510	-6.754517	-1.584400	 68.984120	 0.245515	-1.305518	 28.581550	 2.563975	-0.811824	 1.003520	-6.903921	-2.232584	 10.467990	-4.406509	-1.074466	-12.864770	 8.825328	-113.448500	 5.040184	 92.981220	-2.580286	 54.134360	 46.747390	 20.149560	-1.021184	 0.097537	-41.827500	-42.554370	-57.073730	-6.580301	 5.266122	 0.000000	 0.000000	 0.000000	 0.000000	 0.000000	 0.000000	 0.000000	 3.970578	-0.967087	-0.293593	 3.794840	-0.036757	 3.612276	 114.180900	-4.257121	-88.606320	-50.624100	 11.586950	 17.387210	-116.085100	-2.023735	-3.185052	-65.825200	-37.158490	-50.014740	-0.359754	 10.581580	 0.744568	 11.977790	 9.316457	-2.095893	-8.359125	 3.149885	 0.104267
 0.002077	 1.273375	-0.011865	 0.387697	 3.245578	 178.172000	 175.938700	 2.709850	 14.382130	 3.291898	-16.217620	 2.653235	-3.006483	 70.211170	 6.722654	 1.331492	 28.938720	-2.729976	-175.227000	 2.569013	-11.937870	-4.702511	-15.134420	-6.830221	-1.819259	 68.873060	 0.472792	-1.305550	 28.581730	 2.555620	-0.895513	 0.812673	-5.845121	-2.239447	 11.051340	-3.824439	-1.099122	-13.668420	 7.271576	-113.448700	 5.022479	 92.977350	-3.244024	 54.382100	 47.477260	 20.422750	-1.034390	 0.102472	-40.826040	-45.746430	-54.631010	-6.580301	 5.266122	 0.000000	 0.000000	 0.000000	 0.000000	 0.000000	 0.000000	 0.000000	 3.999359	-1.033257	-0.302399	 3.899891	-0.058144	 3.175300	 114.175900	-4.221998	-88.631710	-53.496530	 9.683961	 11.565170	-118.706700	-1.976369	-3.276549	-66.582380	-31.476970	-58.394680	-0.359748	 10.581400	 0.744568	 11.977790	 9.316280	-2.095857	-8.359123	 3.149793	 0.104276
 0.002886	 1.273818	-0.012591	 0.396124	 3.261421	 178.057000	 176.004700	 2.650937	 14.248290	 3.283609	-16.179020	 2.599245	-3.155713	 70.181180	 6.874328	 1.331492	 28.938720	-2.729976	-175.189700	 2.496395	-11.998530	-4.677314	-15.057210	-6.917705	-2.073331	 68.771130	 0.725759	-1.305586	 28.581940	 2.546318	-1.001686	 0.651828	-4.601691	-2.222806	 11.545390	-3.115109	-1.165589	-14.324960	 5.440032	-113.449100	 5.002775	 92.973030	-3.698302	 54.717590	 48.047220	 20.584300	-1.042230	 0.105426	-38.942330	-49.146680	-51.130660	-6.580301	 5.266122	 0.000000	 0.000000	 0.000000	 0.000000	 0.000000	 0.000000	 0.000000	 4.031384	-1.106919	-0.312162	 4.015660	-0.064462	 2.668349	 114.170400	-4.182877	-88.659970	-57.389110	 7.205301	 5.905220	-120.326800	-1.944999	-3.331925	-65.034220	-25.578600	-64.861100	-0.359742	 10.581200	 0.744568	 11.977790	 9.316086	-2.095818	-8.359118	 3.149689	 0.104286
 0.003548	 1.274255	-0.013251	 0.418718	 3.268831	 177.944100	 176.080100	 2.595321	 14.118460	 3.273328	-16.131020	 2.548490	-3.288016	 70.152450	 7.013684	 1.331492	 28.938720	-2.729976	-175.154300	 2.427865	-12.061020	-4.647592	-14.966010	-6.998947	-2.299875	 68.671490	 0.959279	-1.305620	 28.582130	 2.537618	-1.090645	 0.541635	-3.387829	-2.164972	 11.861820	-2.401161	-1.267417	-14.714030	 3.663920	-113.449400	 4.984343	 92.969010	-3.836003	 55.092040	 48.332550	 20.561820	-1.041130	 0.104987	-36.308810	-52.096340	-47.031220	-6.580301	 5.266122	 0.000000	 0.000000	 0.000000	 0.000000	 0.000000	 0.000000	 0.000000	 4.061331	-1.175828	-0.321258	 4.123261	-0.056886	 2.182058	 114.165100	-4.146277	-88.686410	-60.655750	 4.608716	 1.655104	-120.960600	-1.932297	-3.353395	-62.796510	-21.200060	-68.374500	-0.359736	 10.581020	 0.744568	 11.977790	 9.315905	-2.095782	-8.359115	 3.149594	 0.104295
